# xmcd
# 
# Track frame offsets:
#     150
#     14398
#     41369
#     65705
#     80827
#     98654
#     109339
#     171449
# 
# Disc length: 2504
# 
# Revision: 2
# Processed by: cddbd v1.5.2PL0 Copyright (c) Steve Scherf et al.
# Submitted via: fre:ac v1.0.31
# 
DISCID=6809c608
DTITLE=Sly and The Family Stone - The Woodstock Experience Disc 1 Stand!
DYEAR=2009
DGENRE=R&B
TTITLE0=Stand!
TTITLE1=Don't Call Me Nigger, Whitey
TTITLE2=I Want To Take You Higher
TTITLE3=Somebody's Watching You
TTITLE4=Sing A Simple Song
TTITLE5=Everyday People
TTITLE6=Sex Machine
TTITLE7=You Can Make It If You Try
EXTD=
EXTT0=
EXTT1=
EXTT2=
EXTT3=
EXTT4=
EXTT5=
EXTT6=
EXTT7=
PLAYORDER=
